<svg width="102" height="102" viewBox="0 0 102 102" fill="none" xmlns="http://www.w3.org/2000/svg">
<g clip-path="url(#clip0)">
<path d="M32.6247 30.3788C31.2738 29.8548 29.0689 29.8546 27.7092 30.3788C26.3497 30.9027 26.3424 31.7554 27.6933 32.2795C29.044 32.8035 31.2491 32.8037 32.6086 32.2795C33.9685 31.7556 33.9754 30.9027 32.6247 30.3788Z" fill="white"/>
<path d="M42.0052 29.0851C41.433 27.84 40.502 27.8334 39.9295 29.0706C39.3573 30.3077 39.3573 32.3274 39.9295 33.5729C40.5018 34.8181 41.4328 34.8246 42.0052 33.5875C42.5775 32.3503 42.5773 30.3304 42.0052 29.0851Z" fill="white"/>
<path d="M51.6282 34.7995C51.0776 33.5542 49.5185 32.1258 48.1524 31.616C46.7866 31.106 46.1232 31.7045 46.6736 32.9498C47.2243 34.1951 48.7834 35.6233 50.1494 36.1333C51.5155 36.6433 52.1789 36.0451 51.6282 34.7995Z" fill="white"/>
<path d="M39.2573 38.9235C38.7067 37.6782 37.1476 36.2498 35.7815 35.7398C34.4157 35.2298 33.7521 35.8282 34.3027 37.0738C34.8532 38.3191 36.4123 39.7473 37.7785 40.2573C39.1446 40.7673 39.8078 40.1688 39.2573 38.9235Z" fill="white"/>
<path d="M58.2896 31.5715C57.6841 30.2449 56.792 30.1991 56.3008 31.4689C55.8095 32.7388 55.9021 34.8513 56.5073 36.1777C57.1126 37.5045 58.0047 37.5505 58.496 36.2805C58.9876 35.0105 58.8948 32.8981 58.2896 31.5715Z" fill="white"/>
<path d="M54.1996 23.1503C52.9542 23.7009 51.526 25.26 51.016 26.6261C50.506 27.9921 51.1045 28.6555 52.3498 28.1049C53.5951 27.5543 55.0235 25.9952 55.5333 24.6291C56.0433 23.2631 55.4451 22.5996 54.1996 23.1503Z" fill="#FFFEFE"/>
<path d="M47.4331 22.4681C46.1633 21.9766 44.0508 22.0694 42.7242 22.6747C41.3976 23.2797 41.3515 24.1718 42.6218 24.6633C43.8916 25.1547 46.0039 25.0619 47.3305 24.4569C48.6571 23.8517 48.703 22.9594 47.4331 22.4681Z" fill="white"/>
<path d="M20.3604 37.4037C19.0007 37.9079 17.4412 39.3361 16.8844 40.5872C16.3276 41.8385 16.9811 42.4464 18.3407 41.9419C19.7004 41.4377 21.2597 40.0095 21.8165 38.7584C22.3733 37.5071 21.7199 36.8995 20.3604 37.4037Z" fill="white"/>
<path d="M89.4531 40.6435C88.1024 40.1196 85.8973 40.1194 84.5378 40.6435C83.1783 41.1677 83.1709 42.0203 84.5216 42.5445C85.8724 43.0684 88.0775 43.0686 89.4372 42.5445C90.7967 42.0203 90.8041 41.1677 89.4531 40.6435Z" fill="white"/>
<path d="M75.1477 35.4555C73.797 34.9316 71.5919 34.9314 70.2324 35.4555C68.8729 35.9797 68.8656 36.8325 70.2163 37.3565C71.5672 37.8804 73.7721 37.8804 75.1318 37.3565C76.4915 36.8323 76.4986 35.9797 75.1477 35.4555Z" fill="white"/>
<path d="M68.9285 32.902C68.3778 31.6566 66.8187 30.2284 65.4527 29.7184C64.0868 29.2084 63.4232 29.8069 63.9739 31.0522C64.5245 32.2975 66.0836 33.7257 67.4497 34.2359C68.8157 34.7459 69.4789 34.1477 68.9285 32.902Z" fill="white"/>
<path d="M82.8436 37.9112C82.293 36.6659 80.7339 35.2377 79.3678 34.7277C78.002 34.2177 77.3384 34.8162 77.889 36.0615C78.4395 37.3068 79.9986 38.735 81.3648 39.2452C82.7309 39.7552 83.3943 39.157 82.8436 37.9112Z" fill="white"/>
<path d="M76.0768 31.0847C75.5261 29.8394 73.967 28.4112 72.601 27.9012C71.2351 27.3912 70.5715 27.9896 71.1222 29.2349C71.6726 30.4805 73.2317 31.9087 74.598 32.4187C75.9638 32.9287 76.6272 32.3302 76.0768 31.0847Z" fill="white"/>
<mask id="path-14-inside-1" fill="white">
<path d="M100.428 46.0653C99.2566 44.5152 97.5943 43.4994 95.7392 43.1639L95.5057 40.6344C95.3328 38.7617 93.7627 37.3423 91.894 37.3423C91.8743 37.3423 91.855 37.3425 91.8351 37.3429C91.7046 36.4285 91.3962 35.4063 90.336 34.4542C89.2472 33.5025 88.1631 33.3326 87.208 33.3314C87.1038 32.7545 86.9608 32.2823 86.6378 31.7241C85.4338 29.7032 83.587 29.4683 82.3226 29.5263C82.0773 28.574 81.6352 27.5522 80.4654 26.7661C79.292 25.9553 78.2025 25.9105 77.2052 26.033C76.9147 25.1479 76.3952 24.1153 75.1592 23.3929C73.9193 22.6638 72.8379 22.6955 71.8649 22.8821C71.0585 20.6206 68.6228 19.3962 66.328 20.0907C66.325 20.0915 66.3224 20.0923 66.3196 20.0931C65.9114 19.2543 65.302 18.3818 64.0467 17.8146C64.0131 17.7976 63.9788 17.7821 63.9438 17.7674C62.5283 17.1813 61.3561 17.4393 60.518 17.7463C59.9771 16.8783 59.2344 16.0503 57.8014 15.66C57.7911 15.6572 57.7807 15.6544 57.7703 15.6519C56.2784 15.2787 55.1761 15.6722 54.3201 16.1495C54.3029 16.13 54.2858 16.1109 54.2687 16.0911C54.2639 16.0858 54.2589 16.0802 54.2543 16.0748C53.0076 14.7008 50.9353 14.2699 49.2154 15.0277C49.2067 15.0317 49.1977 15.0355 49.189 15.0397C48.52 15.3494 48.0994 15.6985 47.6882 16.1467C46.7963 15.6459 45.7385 15.2769 44.2441 15.6483C44.2336 15.6509 44.2232 15.6536 44.213 15.6564C42.7807 16.0447 42.0364 16.8735 41.4937 17.7425C40.6094 17.4181 39.4921 17.1908 38.095 17.7512C36.7573 18.3069 36.118 19.2155 35.692 20.0905C34.7318 19.8371 33.6532 19.7339 32.3681 20.3734C32.3603 20.3775 32.3525 20.3811 32.3447 20.3853C31.0484 21.0583 30.494 22.0028 30.1446 22.8859C29.5571 22.7706 29.0604 22.7315 28.4295 22.8357C26.1022 23.2306 25.2197 24.8725 24.8192 26.0796C23.8383 25.9696 22.724 26.0208 21.5777 26.8293C20.3993 27.6377 19.9654 28.6621 19.7302 29.6124C18.8008 29.5671 17.6531 29.6817 16.5399 30.57C15.422 31.4561 15.0581 32.4728 14.8778 33.4461C13.1384 33.3932 11.5124 34.3606 10.7185 35.9189C10.432 36.4815 10.3364 36.9086 10.2756 37.3696C9.38031 37.3082 8.50633 37.5913 7.80249 38.17C7.0588 38.7816 6.58147 39.6825 6.49302 40.642C6.49162 40.6575 6.49043 40.6728 6.48943 40.6886L6.33723 43.1509C4.45161 43.4731 2.75944 44.4959 1.5701 46.0669C0.0970736 48.0133 -0.367706 50.478 0.295695 52.8296C3.01982 62.486 10.3792 70.9054 21.0605 76.6158C21.2871 79.4621 22.5441 82.1007 24.6349 84.0931C26.8333 86.1885 29.7097 87.3426 32.7338 87.3426H69.2717C75.4058 87.3426 80.4537 82.6139 80.9434 76.6192C91.6106 70.9173 98.9665 62.5097 101.699 52.8669C102.37 50.5003 101.907 48.021 100.428 46.0653ZM9.57196 40.9115C9.58869 40.774 9.65822 40.6459 9.7648 40.5585C9.83134 40.5035 9.9427 40.4397 10.0967 40.4571L10.2109 40.4684C10.4336 40.4907 10.7705 40.5244 11.2811 40.5575C11.6654 40.5822 12.0453 40.4625 12.3459 40.2218C12.4427 40.1443 12.5419 40.0636 12.6439 39.9793C12.9408 39.7341 13.1358 39.3865 13.19 39.005C13.2436 38.628 13.2752 38.3366 13.3007 38.1021C13.3597 37.5634 13.3675 37.527 13.4715 37.3228C13.7243 36.8267 14.2349 36.5177 14.7811 36.537L15.9043 36.5769C16.29 36.5908 16.6634 36.4609 16.9564 36.2127L17.2399 35.9728C17.5322 35.726 17.7222 35.3796 17.7738 35.0007L17.8127 34.7064C17.9567 33.6031 18.0282 33.3342 18.4619 32.9901C18.892 32.6469 19.2564 32.6527 20.1904 32.7564C20.3179 32.7704 20.4448 32.7847 20.5711 32.7967C20.8336 32.8222 21.0944 32.7782 21.3321 32.6752C21.3594 32.8427 21.414 33.028 21.5044 33.2328C22.0551 34.4781 23.6141 35.9063 24.9802 36.4163C26.346 36.9263 27.0096 36.3279 26.459 35.0825C25.9084 33.8372 24.3493 32.409 22.9832 31.899C22.7667 31.8181 22.57 31.7681 22.3909 31.7412C22.4571 31.6125 22.5055 31.4745 22.5336 31.3298L22.59 31.032C22.7868 29.9803 22.8846 29.6807 23.3406 29.3679C23.7781 29.0595 24.0805 29.0721 25.1852 29.2607L25.4438 29.3046C25.8225 29.3671 26.2108 29.2872 26.5333 29.0798L26.8459 28.879C27.1686 28.6711 27.4025 28.3509 27.5019 27.9802C27.527 27.8873 27.5521 27.7855 27.579 27.6771C27.8762 26.4743 28.1273 26.0228 28.9365 25.8856C29.215 25.8391 29.3853 25.8722 30.3163 26.0953L30.5394 26.1489C30.913 26.2376 31.3066 26.1846 31.6435 25.9991C31.6925 25.9718 31.9353 25.8409 31.9569 25.8294C32.2967 25.6467 32.5563 25.3433 32.684 24.9779C32.7284 24.8508 32.7705 24.7257 32.8115 24.6034C33.1181 23.6912 33.2317 23.4113 33.7544 23.1365C34.2467 22.8945 34.5256 22.9463 35.5819 23.2877L35.8468 23.3728C36.2257 23.4931 36.6184 23.4714 36.9758 23.2969C37.0188 23.2768 37.2679 23.163 37.2926 23.1517C37.6464 22.9919 37.9271 22.7048 38.0789 22.3476C38.1187 22.2536 38.1574 22.161 38.1954 22.0689C38.5829 21.1392 38.7315 20.8344 39.2608 20.6142C39.8153 20.3919 40.1603 20.521 40.9558 20.8612L41.1178 20.9306C41.3359 21.0228 41.5722 21.0645 41.8097 21.0503L42.3768 21.0172C42.9096 20.9866 43.3887 20.6829 43.6443 20.2144L43.7359 20.0454C44.2844 19.0346 44.4577 18.7961 45.0035 18.6447C45.6201 18.4953 45.8867 18.6439 46.7886 19.2233L46.9627 19.335C47.2816 19.5386 47.6645 19.6183 48.0379 19.5586L48.412 19.4986C48.7839 19.4388 49.1208 19.2454 49.3601 18.9543L49.4671 18.8242C50.0536 18.1094 50.155 18.0001 50.4697 17.8524C50.8963 17.6701 51.5571 17.7116 51.9575 18.1465C52.2008 18.4228 52.4257 18.687 52.6446 18.9539C52.8839 19.246 53.2218 19.44 53.5943 19.5L53.9664 19.5597C54.3404 19.6211 54.7241 19.5408 55.0436 19.3368L55.2578 19.199C56.0879 18.6623 56.3852 18.4971 57.0025 18.6471C57.549 18.7993 57.7217 19.037 58.2674 20.0433L58.3618 20.2172C58.5489 20.5604 58.8641 20.8218 59.2346 20.9451C59.4081 21.0029 59.588 21.0304 59.7739 21.0236L60.4644 21.0011C60.6524 20.9949 60.8379 20.9543 61.0116 20.8816L61.1525 20.8222C61.826 20.5363 62.1838 20.4038 62.7078 20.6029C62.7183 20.6076 62.7289 20.6124 62.7393 20.6168C63.2845 20.8527 63.43 21.1519 63.8083 22.0625C63.8479 22.158 63.888 22.2546 63.9294 22.352C64.0798 22.7068 64.3575 22.9925 64.708 23.1531L65.046 23.3085C65.3959 23.4692 65.7933 23.4931 66.1601 23.3766C66.5061 23.2664 66.8537 23.1577 67.2113 23.0521C68.0108 22.81 68.7376 23.3162 68.9525 23.9219L69.3271 24.9823C69.4506 25.3313 69.7018 25.6282 70.0229 25.8121C70.0474 25.8276 70.0881 25.8543 70.1612 25.9025C70.3407 26.0212 70.5431 26.1011 70.7553 26.1372L70.8714 26.1573C71.0822 26.1953 71.2983 26.1884 71.5065 26.1382L71.7729 26.0728C72.8425 25.8085 73.1162 25.7784 73.5943 26.0597C74.0713 26.3384 74.1968 26.6808 74.4335 27.5887C74.4655 27.7128 74.498 27.8359 74.5317 27.9574C74.6345 28.3276 74.8713 28.6461 75.1961 28.8509L75.5088 29.0484C75.8338 29.2538 76.2234 29.3307 76.6024 29.2641L76.8554 29.2187C77.9622 29.0195 78.2656 29.0041 78.7234 29.3203C79.1641 29.6165 79.2655 29.9188 79.4757 30.9826L79.5317 31.2641C79.6082 31.6396 79.8213 31.9731 80.1299 32.2004L80.423 32.4156C80.5806 32.5313 80.7392 32.6106 80.928 32.6602C80.9374 32.6628 80.9545 32.6674 80.9637 32.67C81.1428 32.717 81.329 32.7307 81.5129 32.7118C81.6081 32.7019 81.7117 32.6893 81.8221 32.6756C83.0481 32.5244 83.5581 32.5965 83.9707 33.2888C84.1203 33.5473 84.1488 33.6999 84.2789 34.6446L84.3132 34.8927C84.3659 35.2708 84.5568 35.616 84.8489 35.8619L85.1343 36.1017C85.4288 36.3492 85.8073 36.4797 86.1894 36.4625C86.3193 36.4575 86.4472 36.4508 86.5735 36.4442C87.5144 36.3962 87.8621 36.3978 88.2848 36.7673C88.7095 37.1486 88.7526 37.4357 88.8366 38.373C88.8504 38.5276 88.8647 38.6856 88.8823 38.8476C88.9233 39.2307 89.106 39.5847 89.3944 39.8399L89.6716 40.0839C89.9612 40.3379 90.33 40.471 90.7216 40.4666C91.1085 40.4589 91.4952 40.4497 91.8733 40.4332C92.1532 40.414 92.4009 40.6348 92.4272 40.9197L92.5381 42.123C92.5684 42.4537 92.5995 42.7893 92.6226 43.041H77.6134C77.5592 42.4447 77.4279 41.8745 77.2154 41.4119C76.6432 40.1668 75.7122 40.1602 75.1401 41.3974C74.9251 41.8622 74.794 42.4381 74.7413 43.0414H70.6349C70.7005 42.7876 70.6539 42.4479 70.4716 42.0351C69.9209 40.7898 68.3618 39.3616 66.9958 38.8516C65.6299 38.3416 64.9663 38.94 65.517 40.1853C65.9758 41.2237 67.1356 42.3869 68.3003 43.0414H60.9915C61.3067 41.7656 61.1732 39.9797 60.6381 38.8073C60.0327 37.4807 59.1406 37.4347 58.6493 38.7047C58.2014 39.8622 58.2403 41.7173 58.7085 43.0414H55.3297C55.4763 42.78 55.4574 42.3809 55.2321 41.8707C54.6814 40.6254 53.1223 39.197 51.7563 38.6872C50.3902 38.1772 49.7268 38.7757 50.2775 40.021C50.7779 41.1532 52.1119 42.4341 53.3769 43.0414H49.8822C50.1833 42.5955 49.8892 42.1018 48.9911 41.7536C47.6402 41.2297 45.4353 41.2295 44.0756 41.7536C43.1713 42.102 42.8691 42.5957 43.1628 43.0416H28.6976C28.7407 42.7953 28.6871 42.477 28.5193 42.0977C27.9687 40.8523 26.4096 39.4239 25.0435 38.9141C23.6777 38.4041 23.0141 39.0026 23.5647 40.2479C24.0092 41.2532 25.1111 42.3772 26.2379 43.0416H9.44007L9.57196 40.9115ZM98.7251 52.0246C98.3127 53.4795 97.7816 54.9041 97.1401 56.294H28.7454C27.8918 56.294 27.2001 56.9857 27.2001 57.8394C27.2001 58.693 27.8918 59.3847 28.7454 59.3847H95.4961C93.9404 61.9517 91.9851 64.3704 89.6688 66.5965H32.7984C31.9447 66.5965 31.253 67.2882 31.253 68.1418C31.253 68.9955 31.9447 69.6872 32.7984 69.6872H86.0545C83.9342 71.307 81.5958 72.7906 79.0593 74.1166H36.576C35.7223 74.1166 35.0306 74.8083 35.0306 75.662C35.0306 76.5156 35.7223 77.2073 36.576 77.2073H77.7489C77.0159 81.2082 73.4947 84.2519 69.2715 84.2519H32.7336C28.562 84.2519 24.9894 81.1879 24.2538 77.2073H30.3944C31.248 77.2073 31.9397 76.5156 31.9397 75.662C31.9397 74.8083 31.248 74.1166 30.3944 74.1166H22.9509C20.4139 72.7902 18.0746 71.3066 15.9538 69.6872H21.8773C22.731 69.6872 23.4227 68.9955 23.4227 68.1418C23.4227 67.2882 22.731 66.5965 21.8773 66.5965H12.3385C10.0212 64.3702 8.06546 61.9519 6.50955 59.3845H16.6857C17.5393 59.3845 18.231 58.6928 18.231 57.8392C18.231 56.9855 17.5393 56.2938 16.6857 56.2938H4.8648C4.21833 54.8935 3.68362 53.4575 3.26984 51.9911C2.8716 50.5796 3.15011 49.1006 4.03385 47.933C4.90006 46.7885 6.21032 46.1322 7.62917 46.1322H94.3755C95.7918 46.1322 97.0993 46.7873 97.9625 47.9292C98.8514 49.1054 99.1297 50.5982 98.7251 52.0246Z"/>
</mask>
<path d="M100.428 46.0653C99.2566 44.5152 97.5943 43.4994 95.7392 43.1639L95.5057 40.6344C95.3328 38.7617 93.7627 37.3423 91.894 37.3423C91.8743 37.3423 91.855 37.3425 91.8351 37.3429C91.7046 36.4285 91.3962 35.4063 90.336 34.4542C89.2472 33.5025 88.1631 33.3326 87.208 33.3314C87.1038 32.7545 86.9608 32.2823 86.6378 31.7241C85.4338 29.7032 83.587 29.4683 82.3226 29.5263C82.0773 28.574 81.6352 27.5522 80.4654 26.7661C79.292 25.9553 78.2025 25.9105 77.2052 26.033C76.9147 25.1479 76.3952 24.1153 75.1592 23.3929C73.9193 22.6638 72.8379 22.6955 71.8649 22.8821C71.0585 20.6206 68.6228 19.3962 66.328 20.0907C66.325 20.0915 66.3224 20.0923 66.3196 20.0931C65.9114 19.2543 65.302 18.3818 64.0467 17.8146C64.0131 17.7976 63.9788 17.7821 63.9438 17.7674C62.5283 17.1813 61.3561 17.4393 60.518 17.7463C59.9771 16.8783 59.2344 16.0503 57.8014 15.66C57.7911 15.6572 57.7807 15.6544 57.7703 15.6519C56.2784 15.2787 55.1761 15.6722 54.3201 16.1495C54.3029 16.13 54.2858 16.1109 54.2687 16.0911C54.2639 16.0858 54.2589 16.0802 54.2543 16.0748C53.0076 14.7008 50.9353 14.2699 49.2154 15.0277C49.2067 15.0317 49.1977 15.0355 49.189 15.0397C48.52 15.3494 48.0994 15.6985 47.6882 16.1467C46.7963 15.6459 45.7385 15.2769 44.2441 15.6483C44.2336 15.6509 44.2232 15.6536 44.213 15.6564C42.7807 16.0447 42.0364 16.8735 41.4937 17.7425C40.6094 17.4181 39.4921 17.1908 38.095 17.7512C36.7573 18.3069 36.118 19.2155 35.692 20.0905C34.7318 19.8371 33.6532 19.7339 32.3681 20.3734C32.3603 20.3775 32.3525 20.3811 32.3447 20.3853C31.0484 21.0583 30.494 22.0028 30.1446 22.8859C29.5571 22.7706 29.0604 22.7315 28.4295 22.8357C26.1022 23.2306 25.2197 24.8725 24.8192 26.0796C23.8383 25.9696 22.724 26.0208 21.5777 26.8293C20.3993 27.6377 19.9654 28.6621 19.7302 29.6124C18.8008 29.5671 17.6531 29.6817 16.5399 30.57C15.422 31.4561 15.0581 32.4728 14.8778 33.4461C13.1384 33.3932 11.5124 34.3606 10.7185 35.9189C10.432 36.4815 10.3364 36.9086 10.2756 37.3696C9.38031 37.3082 8.50633 37.5913 7.80249 38.17C7.0588 38.7816 6.58147 39.6825 6.49302 40.642C6.49162 40.6575 6.49043 40.6728 6.48943 40.6886L6.33723 43.1509C4.45161 43.4731 2.75944 44.4959 1.5701 46.0669C0.0970736 48.0133 -0.367706 50.478 0.295695 52.8296C3.01982 62.486 10.3792 70.9054 21.0605 76.6158C21.2871 79.4621 22.5441 82.1007 24.6349 84.0931C26.8333 86.1885 29.7097 87.3426 32.7338 87.3426H69.2717C75.4058 87.3426 80.4537 82.6139 80.9434 76.6192C91.6106 70.9173 98.9665 62.5097 101.699 52.8669C102.37 50.5003 101.907 48.021 100.428 46.0653ZM9.57196 40.9115C9.58869 40.774 9.65822 40.6459 9.7648 40.5585C9.83134 40.5035 9.9427 40.4397 10.0967 40.4571L10.2109 40.4684C10.4336 40.4907 10.7705 40.5244 11.2811 40.5575C11.6654 40.5822 12.0453 40.4625 12.3459 40.2218C12.4427 40.1443 12.5419 40.0636 12.6439 39.9793C12.9408 39.7341 13.1358 39.3865 13.19 39.005C13.2436 38.628 13.2752 38.3366 13.3007 38.1021C13.3597 37.5634 13.3675 37.527 13.4715 37.3228C13.7243 36.8267 14.2349 36.5177 14.7811 36.537L15.9043 36.5769C16.29 36.5908 16.6634 36.4609 16.9564 36.2127L17.2399 35.9728C17.5322 35.726 17.7222 35.3796 17.7738 35.0007L17.8127 34.7064C17.9567 33.6031 18.0282 33.3342 18.4619 32.9901C18.892 32.6469 19.2564 32.6527 20.1904 32.7564C20.3179 32.7704 20.4448 32.7847 20.5711 32.7967C20.8336 32.8222 21.0944 32.7782 21.3321 32.6752C21.3594 32.8427 21.414 33.028 21.5044 33.2328C22.0551 34.4781 23.6141 35.9063 24.9802 36.4163C26.346 36.9263 27.0096 36.3279 26.459 35.0825C25.9084 33.8372 24.3493 32.409 22.9832 31.899C22.7667 31.8181 22.57 31.7681 22.3909 31.7412C22.4571 31.6125 22.5055 31.4745 22.5336 31.3298L22.59 31.032C22.7868 29.9803 22.8846 29.6807 23.3406 29.3679C23.7781 29.0595 24.0805 29.0721 25.1852 29.2607L25.4438 29.3046C25.8225 29.3671 26.2108 29.2872 26.5333 29.0798L26.8459 28.879C27.1686 28.6711 27.4025 28.3509 27.5019 27.9802C27.527 27.8873 27.5521 27.7855 27.579 27.6771C27.8762 26.4743 28.1273 26.0228 28.9365 25.8856C29.215 25.8391 29.3853 25.8722 30.3163 26.0953L30.5394 26.1489C30.913 26.2376 31.3066 26.1846 31.6435 25.9991C31.6925 25.9718 31.9353 25.8409 31.9569 25.8294C32.2967 25.6467 32.5563 25.3433 32.684 24.9779C32.7284 24.8508 32.7705 24.7257 32.8115 24.6034C33.1181 23.6912 33.2317 23.4113 33.7544 23.1365C34.2467 22.8945 34.5256 22.9463 35.5819 23.2877L35.8468 23.3728C36.2257 23.4931 36.6184 23.4714 36.9758 23.2969C37.0188 23.2768 37.2679 23.163 37.2926 23.1517C37.6464 22.9919 37.9271 22.7048 38.0789 22.3476C38.1187 22.2536 38.1574 22.161 38.1954 22.0689C38.5829 21.1392 38.7315 20.8344 39.2608 20.6142C39.8153 20.3919 40.1603 20.521 40.9558 20.8612L41.1178 20.9306C41.3359 21.0228 41.5722 21.0645 41.8097 21.0503L42.3768 21.0172C42.9096 20.9866 43.3887 20.6829 43.6443 20.2144L43.7359 20.0454C44.2844 19.0346 44.4577 18.7961 45.0035 18.6447C45.6201 18.4953 45.8867 18.6439 46.7886 19.2233L46.9627 19.335C47.2816 19.5386 47.6645 19.6183 48.0379 19.5586L48.412 19.4986C48.7839 19.4388 49.1208 19.2454 49.3601 18.9543L49.4671 18.8242C50.0536 18.1094 50.155 18.0001 50.4697 17.8524C50.8963 17.6701 51.5571 17.7116 51.9575 18.1465C52.2008 18.4228 52.4257 18.687 52.6446 18.9539C52.8839 19.246 53.2218 19.44 53.5943 19.5L53.9664 19.5597C54.3404 19.6211 54.7241 19.5408 55.0436 19.3368L55.2578 19.199C56.0879 18.6623 56.3852 18.4971 57.0025 18.6471C57.549 18.7993 57.7217 19.037 58.2674 20.0433L58.3618 20.2172C58.5489 20.5604 58.8641 20.8218 59.2346 20.9451C59.4081 21.0029 59.588 21.0304 59.7739 21.0236L60.4644 21.0011C60.6524 20.9949 60.8379 20.9543 61.0116 20.8816L61.1525 20.8222C61.826 20.5363 62.1838 20.4038 62.7078 20.6029C62.7183 20.6076 62.7289 20.6124 62.7393 20.6168C63.2845 20.8527 63.43 21.1519 63.8083 22.0625C63.8479 22.158 63.888 22.2546 63.9294 22.352C64.0798 22.7068 64.3575 22.9925 64.708 23.1531L65.046 23.3085C65.3959 23.4692 65.7933 23.4931 66.1601 23.3766C66.5061 23.2664 66.8537 23.1577 67.2113 23.0521C68.0108 22.81 68.7376 23.3162 68.9525 23.9219L69.3271 24.9823C69.4506 25.3313 69.7018 25.6282 70.0229 25.8121C70.0474 25.8276 70.0881 25.8543 70.1612 25.9025C70.3407 26.0212 70.5431 26.1011 70.7553 26.1372L70.8714 26.1573C71.0822 26.1953 71.2983 26.1884 71.5065 26.1382L71.7729 26.0728C72.8425 25.8085 73.1162 25.7784 73.5943 26.0597C74.0713 26.3384 74.1968 26.6808 74.4335 27.5887C74.4655 27.7128 74.498 27.8359 74.5317 27.9574C74.6345 28.3276 74.8713 28.6461 75.1961 28.8509L75.5088 29.0484C75.8338 29.2538 76.2234 29.3307 76.6024 29.2641L76.8554 29.2187C77.9622 29.0195 78.2656 29.0041 78.7234 29.3203C79.1641 29.6165 79.2655 29.9188 79.4757 30.9826L79.5317 31.2641C79.6082 31.6396 79.8213 31.9731 80.1299 32.2004L80.423 32.4156C80.5806 32.5313 80.7392 32.6106 80.928 32.6602C80.9374 32.6628 80.9545 32.6674 80.9637 32.67C81.1428 32.717 81.329 32.7307 81.5129 32.7118C81.6081 32.7019 81.7117 32.6893 81.8221 32.6756C83.0481 32.5244 83.5581 32.5965 83.9707 33.2888C84.1203 33.5473 84.1488 33.6999 84.2789 34.6446L84.3132 34.8927C84.3659 35.2708 84.5568 35.616 84.8489 35.8619L85.1343 36.1017C85.4288 36.3492 85.8073 36.4797 86.1894 36.4625C86.3193 36.4575 86.4472 36.4508 86.5735 36.4442C87.5144 36.3962 87.8621 36.3978 88.2848 36.7673C88.7095 37.1486 88.7526 37.4357 88.8366 38.373C88.8504 38.5276 88.8647 38.6856 88.8823 38.8476C88.9233 39.2307 89.106 39.5847 89.3944 39.8399L89.6716 40.0839C89.9612 40.3379 90.33 40.471 90.7216 40.4666C91.1085 40.4589 91.4952 40.4497 91.8733 40.4332C92.1532 40.414 92.4009 40.6348 92.4272 40.9197L92.5381 42.123C92.5684 42.4537 92.5995 42.7893 92.6226 43.041H77.6134C77.5592 42.4447 77.4279 41.8745 77.2154 41.4119C76.6432 40.1668 75.7122 40.1602 75.1401 41.3974C74.9251 41.8622 74.794 42.4381 74.7413 43.0414H70.6349C70.7005 42.7876 70.6539 42.4479 70.4716 42.0351C69.9209 40.7898 68.3618 39.3616 66.9958 38.8516C65.6299 38.3416 64.9663 38.94 65.517 40.1853C65.9758 41.2237 67.1356 42.3869 68.3003 43.0414H60.9915C61.3067 41.7656 61.1732 39.9797 60.6381 38.8073C60.0327 37.4807 59.1406 37.4347 58.6493 38.7047C58.2014 39.8622 58.2403 41.7173 58.7085 43.0414H55.3297C55.4763 42.78 55.4574 42.3809 55.2321 41.8707C54.6814 40.6254 53.1223 39.197 51.7563 38.6872C50.3902 38.1772 49.7268 38.7757 50.2775 40.021C50.7779 41.1532 52.1119 42.4341 53.3769 43.0414H49.8822C50.1833 42.5955 49.8892 42.1018 48.9911 41.7536C47.6402 41.2297 45.4353 41.2295 44.0756 41.7536C43.1713 42.102 42.8691 42.5957 43.1628 43.0416H28.6976C28.7407 42.7953 28.6871 42.477 28.5193 42.0977C27.9687 40.8523 26.4096 39.4239 25.0435 38.9141C23.6777 38.4041 23.0141 39.0026 23.5647 40.2479C24.0092 41.2532 25.1111 42.3772 26.2379 43.0416H9.44007L9.57196 40.9115ZM98.7251 52.0246C98.3127 53.4795 97.7816 54.9041 97.1401 56.294H28.7454C27.8918 56.294 27.2001 56.9857 27.2001 57.8394C27.2001 58.693 27.8918 59.3847 28.7454 59.3847H95.4961C93.9404 61.9517 91.9851 64.3704 89.6688 66.5965H32.7984C31.9447 66.5965 31.253 67.2882 31.253 68.1418C31.253 68.9955 31.9447 69.6872 32.7984 69.6872H86.0545C83.9342 71.307 81.5958 72.7906 79.0593 74.1166H36.576C35.7223 74.1166 35.0306 74.8083 35.0306 75.662C35.0306 76.5156 35.7223 77.2073 36.576 77.2073H77.7489C77.0159 81.2082 73.4947 84.2519 69.2715 84.2519H32.7336C28.562 84.2519 24.9894 81.1879 24.2538 77.2073H30.3944C31.248 77.2073 31.9397 76.5156 31.9397 75.662C31.9397 74.8083 31.248 74.1166 30.3944 74.1166H22.9509C20.4139 72.7902 18.0746 71.3066 15.9538 69.6872H21.8773C22.731 69.6872 23.4227 68.9955 23.4227 68.1418C23.4227 67.2882 22.731 66.5965 21.8773 66.5965H12.3385C10.0212 64.3702 8.06546 61.9519 6.50955 59.3845H16.6857C17.5393 59.3845 18.231 58.6928 18.231 57.8392C18.231 56.9855 17.5393 56.2938 16.6857 56.2938H4.8648C4.21833 54.8935 3.68362 53.4575 3.26984 51.9911C2.8716 50.5796 3.15011 49.1006 4.03385 47.933C4.90006 46.7885 6.21032 46.1322 7.62917 46.1322H94.3755C95.7918 46.1322 97.0993 46.7873 97.9625 47.9292C98.8514 49.1054 99.1297 50.5982 98.7251 52.0246Z" fill="white" stroke="white" stroke-width="8" mask="url(#path-14-inside-1)"/>
</g>
<defs>
<clipPath id="clip0">
<rect width="102" height="102" fill="white"/>
</clipPath>
</defs>
</svg>
