<svg width="24" height="24" viewBox="0 0 24 24" fill="none" xmlns="http://www.w3.org/2000/svg">
<rect width="24" height="24" rx="12" fill="#4D535B"/>
<g clip-path="url(#clip0)">
<path d="M16.4689 6.46437L17.2178 3.83484C17.268 3.65862 17.1628 3.47573 16.9853 3.43041L16.3749 3.27457C16.1973 3.22925 16.0174 3.33937 15.977 3.51806L14.8387 8.55085L14.2766 11.0904H14.9003L16.4689 6.46437Z" fill="white"/>
<path d="M15.7701 9.35821L19.4169 4.13652C19.5218 3.98632 19.482 3.77914 19.329 3.67838L18.8028 3.33199C18.6497 3.23127 18.4437 3.27666 18.3472 3.43243L15.1231 8.637L13.5852 11.3769L14.2766 11.6356L15.7701 9.35821Z" fill="white"/>
<path d="M18.1156 11.7674L18.0503 11.4555C17.9606 11.0272 17.6397 10.6845 17.2182 10.5669L17.2044 10.5631C17.0928 10.5319 17.0029 10.4491 16.9628 10.3404C16.7927 9.88027 16.3541 9.57473 15.8635 9.57473L15.7199 9.24168C15.5346 8.81213 15.1116 8.53395 14.6438 8.53395H14.6154C14.4089 8.53395 14.2241 8.40538 14.1524 8.21165C13.9794 7.74467 13.5302 7.43796 13.0323 7.44694C12.9099 7.44916 12.7916 7.40295 12.7031 7.3184L12.3925 7.02162C11.9395 6.58894 11.2264 6.58894 10.7735 7.02162L10.4628 7.3184C10.3743 7.40295 10.256 7.44912 10.1336 7.44694C9.63574 7.43796 9.18651 7.74467 9.01356 8.21165C8.94182 8.40538 8.75707 8.53395 8.55048 8.53395H8.52213C8.05434 8.53395 7.63135 8.81217 7.44607 9.24168L7.30242 9.57473C6.81185 9.57473 6.37322 9.88027 6.20315 10.3404C6.16297 10.4491 6.0731 10.5319 5.96149 10.5631L5.94772 10.5669C5.52624 10.6845 5.20538 11.0272 5.11568 11.4555L5.05035 11.7674V13.5145H18.1156V11.7674Z" fill="white"/>
<path d="M6.68596 12.5007L6.75128 12.1888C6.84098 11.7605 7.16181 11.4178 7.58333 11.3002L7.5971 11.2964C7.7087 11.2652 7.79857 11.1824 7.83876 11.0737C8.00882 10.6136 8.44745 10.308 8.93803 10.308L9.08168 9.97498C9.26696 9.54544 9.68995 9.26726 10.1577 9.26726H10.1861C10.3927 9.26726 10.5774 9.13868 10.6492 8.94495C10.8221 8.47797 11.2713 8.17126 11.7692 8.18024C11.8916 8.18246 12.0099 8.13626 12.0984 8.0517L12.4091 7.75492C12.5853 7.58655 12.802 7.48428 13.0263 7.44695C12.9064 7.44734 12.7899 7.40131 12.7031 7.31834L12.3925 7.02156C11.9395 6.58888 11.2264 6.58888 10.7734 7.02156L10.4628 7.31834C10.3743 7.40289 10.256 7.44906 10.1336 7.44688C9.63568 7.4379 9.18645 7.74461 9.0135 8.21159C8.94176 8.40532 8.75701 8.53389 8.55043 8.53389H8.52208C8.05429 8.53389 7.63129 8.81211 7.44602 9.24162L7.30236 9.57467C6.81179 9.57467 6.37316 9.88021 6.20309 10.3404C6.16291 10.449 6.07304 10.5319 5.96143 10.563L5.94766 10.5668C5.52618 10.6845 5.20532 11.0271 5.11562 11.4554L5.05029 11.7673V13.5145H6.68592V12.5007H6.68596Z" fill="white"/>
<path d="M15.1294 20.113C15.1294 20.457 14.8506 20.7359 14.5066 20.7359H8.65944C8.31544 20.7359 8.03659 20.457 8.03659 20.113V16.9697H15.1294V20.113Z" fill="white"/>
<path d="M18.6415 12.1183V13.6541C18.6415 16.8208 16.0746 19.3878 12.9078 19.3878H10.2581C7.09136 19.3878 4.52438 16.8208 4.52438 13.6541V12.1183C4.52438 11.9249 4.6811 11.7682 4.87409 11.7682H18.2918C18.4848 11.7682 18.6415 11.9249 18.6415 12.1183Z" fill="white"/>
<path d="M15.0644 18.8906H12.4146C9.24789 18.8906 6.68091 16.3237 6.68091 13.1569V11.7672H4.87409C4.6811 11.7672 4.52438 11.9239 4.52438 12.1173V13.6531C4.52438 16.8198 7.09136 19.3868 10.2581 19.3868H12.9078C13.7428 19.3868 14.536 19.2082 15.2516 18.8873C15.1894 18.8893 15.127 18.8906 15.0644 18.8906Z" fill="white"/>
<path d="M11.2469 10.8442C11.4576 10.6718 11.7515 10.6572 11.9782 10.8081L12.0558 10.8597C12.1008 10.8896 12.1516 10.9039 12.2018 10.9039C12.2873 10.9039 12.3711 10.8625 12.422 10.786C12.5027 10.6646 12.4698 10.5006 12.3484 10.4198L12.2708 10.3682C11.8497 10.0881 11.3038 10.1151 10.9123 10.4353C10.7994 10.5277 10.7828 10.6941 10.8752 10.807C10.9676 10.9199 11.134 10.9365 11.2469 10.8442Z" fill="#040C14"/>
<path d="M12.9234 9.50712C13.0259 9.4232 13.169 9.41608 13.2793 9.48955L13.329 9.52262C13.374 9.55255 13.4248 9.56685 13.4751 9.56685C13.5605 9.56685 13.6444 9.52543 13.6952 9.44898C13.776 9.32751 13.743 9.16358 13.6216 9.08279L13.5719 9.04975C13.2672 8.84701 12.8721 8.86652 12.5888 9.09828C12.4759 9.19066 12.4593 9.35706 12.5516 9.46997C12.6441 9.58284 12.8105 9.59946 12.9234 9.50712Z" fill="#040C14"/>
<path d="M14.7081 10.7794C14.8106 10.6955 14.9537 10.6884 15.064 10.7619L15.1137 10.7949C15.1587 10.8248 15.2095 10.8391 15.2597 10.8391C15.3452 10.8391 15.429 10.7977 15.4799 10.7212C15.5607 10.5998 15.5277 10.4358 15.4062 10.355L15.3566 10.322C15.0518 10.1193 14.6568 10.1387 14.3735 10.3705C14.2606 10.4629 14.244 10.6294 14.3363 10.7422C14.4287 10.8551 14.5952 10.8718 14.7081 10.7794V10.7794Z" fill="#040C14"/>
<path d="M9.72602 9.56685C9.77628 9.56685 9.8271 9.55252 9.87207 9.52262L9.9218 9.48955C10.0321 9.41619 10.1751 9.4232 10.2777 9.50716C10.3906 9.59953 10.557 9.58291 10.6494 9.46997C10.7418 9.35706 10.7251 9.19066 10.6122 9.09829C10.329 8.86652 9.93391 8.84698 9.62921 9.04972L9.57948 9.08279C9.45802 9.16358 9.42506 9.32755 9.50585 9.44898C9.55673 9.52547 9.64059 9.56685 9.72602 9.56685V9.56685Z" fill="#040C14"/>
<path d="M7.94147 10.8391C7.99172 10.8391 8.04254 10.8248 8.08748 10.7949L8.13724 10.7618C8.24757 10.6885 8.39063 10.6955 8.49314 10.7794C8.60608 10.8718 8.77242 10.8552 8.86483 10.7423C8.9572 10.6294 8.94054 10.463 8.82767 10.3706C8.54442 10.1388 8.14935 10.1193 7.84465 10.322L7.79496 10.355C7.6735 10.4358 7.6405 10.5998 7.72129 10.7212C7.77218 10.7977 7.85599 10.8391 7.94147 10.8391V10.8391Z" fill="#040C14"/>
<path d="M19.7291 3.83916C19.6988 3.68149 19.6083 3.54604 19.4742 3.45775L18.948 3.11136C18.8138 3.02307 18.6537 2.99349 18.4969 3.02807C18.3401 3.06262 18.2072 3.15682 18.1227 3.29333L17.2417 4.71547L17.4719 3.90713C17.5159 3.75273 17.496 3.59105 17.416 3.45187C17.336 3.31269 17.2063 3.21416 17.0507 3.17443L16.4403 3.01863C16.2848 2.97887 16.1236 3.00317 15.9867 3.08699C15.8498 3.1708 15.7549 3.30322 15.7195 3.45976L15.5267 4.31191C15.4945 4.45419 15.5838 4.59562 15.7261 4.62781C15.8683 4.66007 16.0098 4.57072 16.042 4.42848L16.2347 3.57633C16.2394 3.55548 16.2524 3.54376 16.2625 3.53759C16.2726 3.53143 16.2889 3.52516 16.3096 3.53048L16.92 3.68631C16.9408 3.6916 16.9522 3.70491 16.958 3.71516C16.9639 3.72541 16.9697 3.74192 16.9638 3.76249L16.2251 6.35662L15.2498 7.9309L15.7935 5.52722C15.8257 5.38495 15.7364 5.24351 15.5941 5.21132C15.4517 5.17903 15.3104 5.26841 15.2782 5.41069L14.6315 8.26983H14.6155C14.5199 8.26983 14.4333 8.20958 14.4001 8.11991C14.1885 7.54844 13.6375 7.17151 13.0276 7.18285C12.9743 7.18402 12.9241 7.16415 12.8856 7.12742L12.575 6.83065C12.0187 6.29929 11.1473 6.29932 10.591 6.83065L10.2804 7.12742C10.242 7.16412 10.1902 7.18423 10.1384 7.18285C9.52886 7.17134 8.97754 7.54844 8.76588 8.11988C8.73267 8.20954 8.64611 8.2698 8.55049 8.2698H8.52214C7.94838 8.2698 7.4308 8.61021 7.20354 9.13706L7.12384 9.32184C6.59854 9.38833 6.14195 9.7441 5.95541 10.2488C5.94463 10.2779 5.92037 10.3003 5.89026 10.3087L5.87673 10.3125C5.35819 10.4572 4.96753 10.8744 4.85716 11.4013L4.8354 11.5052C4.51492 11.5253 4.26019 11.7918 4.26019 12.1172V13.653C4.26019 16.0741 5.70223 18.1646 7.77244 19.1112V20.113C7.77244 20.6021 8.17032 21 8.65942 21H14.5065C14.9956 21 15.3935 20.6021 15.3935 20.113V19.1109C15.8808 18.8891 16.3395 18.6021 16.7548 18.2545C16.8667 18.1609 16.8815 17.9943 16.7879 17.8824C16.6942 17.7705 16.5276 17.7558 16.4158 17.8494C15.4346 18.6705 14.1888 19.1228 12.9077 19.1228H10.2582C7.24217 19.1228 4.78845 16.6691 4.78845 13.653V13.5144H14.2506C14.3964 13.5144 14.5147 13.3962 14.5147 13.2503C14.5147 13.1044 14.3964 12.9862 14.2506 12.9862H4.78845V12.1172C4.78845 12.0699 4.82691 12.0315 4.8742 12.0315H6.15981C6.30568 12.0315 6.42394 11.9132 6.42394 11.7673C6.42394 11.6215 6.30568 11.5032 6.15981 11.5032H5.37573C5.44729 11.1732 5.693 10.9121 6.0189 10.8212L6.03243 10.8174C6.2251 10.7637 6.38154 10.6196 6.45088 10.432C6.58199 10.0772 6.92416 9.83886 7.30239 9.83886C7.40783 9.83886 7.50317 9.77614 7.54494 9.67933L7.68859 9.34628C7.83227 9.01323 8.15944 8.79806 8.52214 8.79806H8.55049C8.866 8.79806 9.15161 8.59925 9.26124 8.30336C9.39503 7.9421 9.74337 7.70379 10.1289 7.71101C10.3215 7.71425 10.5055 7.64286 10.6453 7.50935L10.9559 7.21258C11.3075 6.87668 11.8584 6.87664 12.2101 7.21258L12.5207 7.50935C12.6604 7.64286 12.8433 7.71389 13.0371 7.71101C13.4225 7.70424 13.7709 7.9421 13.9047 8.30336C14.0144 8.59922 14.3 8.79802 14.6155 8.79802H14.6438C15.0065 8.79802 15.3337 9.0132 15.4774 9.34621L15.621 9.67926C15.6628 9.77607 15.7581 9.83879 15.8636 9.83879C16.2418 9.83879 16.584 10.0771 16.7151 10.4319C16.7844 10.6196 16.9409 10.7636 17.1333 10.8173L17.1473 10.8212C17.473 10.9121 17.7187 11.1731 17.7902 11.5032H7.28545C7.13959 11.5032 7.02133 11.6214 7.02133 11.7673C7.02133 11.9132 7.13959 12.0314 7.28545 12.0314H18.2917C18.339 12.0314 18.3775 12.0699 18.3775 12.1172V12.9861H15.4034C15.2575 12.9861 15.1392 13.1044 15.1392 13.2503C15.1392 13.3961 15.2575 13.5144 15.4034 13.5144H18.3775V13.653C18.3775 14.915 17.9596 16.1008 17.1689 17.082C17.0774 17.1956 17.0953 17.3619 17.2089 17.4534C17.2577 17.4928 17.3163 17.5119 17.3744 17.5119C17.4516 17.5119 17.5281 17.4782 17.5803 17.4135C18.435 16.3527 18.9058 15.0172 18.9058 13.653V12.1172C18.9058 11.7917 18.651 11.5253 18.3306 11.5051L18.3088 11.4013C18.1985 10.8744 17.8078 10.4571 17.2894 10.3125L17.2754 10.3086C17.2455 10.3002 17.2213 10.2778 17.2105 10.2488C17.0321 9.76597 16.6064 9.42017 16.11 9.33279L19.6334 4.28775C19.7254 4.15611 19.7593 3.99682 19.7291 3.83916V3.83916ZM12.9077 19.6511C13.5782 19.6511 14.2397 19.5379 14.8653 19.3219V20.1131C14.8653 20.3109 14.7043 20.4718 14.5065 20.4718H8.65942C8.4616 20.4718 8.3007 20.3109 8.3007 20.1131V19.3228C8.9145 19.5353 9.57306 19.6512 10.2582 19.6512H12.9077V19.6511ZM19.2003 3.98527L15.7999 8.85426C15.7124 8.73537 15.6075 8.63204 15.4899 8.54629L18.5717 3.57154C18.583 3.55333 18.5991 3.5465 18.6106 3.54397C18.6221 3.5414 18.6397 3.54087 18.6575 3.55263L19.1838 3.89903C19.2016 3.91079 19.2081 3.92709 19.2103 3.93868C19.2125 3.95027 19.2126 3.96777 19.2003 3.98527V3.98527Z" fill="#040C14"/>
</g>
<defs>
<clipPath id="clip0">
<rect width="18" height="18" fill="white" transform="translate(3 3)"/>
</clipPath>
</defs>
</svg>
