<?xml version="1.0" standalone="no"?>
<!DOCTYPE svg PUBLIC "-//W3C//DTD SVG 20010904//EN"
 "http://www.w3.org/TR/2001/REC-SVG-20010904/DTD/svg10.dtd">
<svg version="1.0" xmlns="http://www.w3.org/2000/svg"
 width="512.000000pt" height="512.000000pt" viewBox="0 0 512.000000 512.000000"
 preserveAspectRatio="xMidYMid meet">
<metadata>
Created by potrace 1.11, written by Peter Selinger 2001-2013
</metadata>
<g transform="translate(0.000000,512.000000) scale(0.100000,-0.100000)"
fill="#000000" stroke="none">
<path d="M2486 4369 c-27 -10 -59 -27 -71 -39 -20 -19 -24 -19 -58 -5 -82 34
-185 9 -244 -58 -28 -32 -35 -35 -61 -28 -85 25 -187 -16 -244 -98 -15 -22
-24 -24 -72 -22 -88 4 -173 -45 -212 -121 -12 -24 -19 -27 -44 -23 -75 13
-185 -49 -219 -125 -14 -32 -20 -36 -61 -39 -88 -6 -167 -60 -195 -135 -15
-40 -19 -43 -56 -44 -78 -3 -151 -59 -188 -143 -19 -43 -24 -47 -65 -53 -76
-12 -143 -72 -171 -153 -7 -22 -20 -38 -31 -39 -71 -11 -122 -44 -147 -97 -16
-33 -24 -84 -26 -158 -1 -34 -4 -37 -36 -43 -78 -15 -164 -78 -218 -159 -76
-114 -84 -228 -29 -394 138 -412 452 -779 899 -1049 l117 -71 12 -59 c16 -80
48 -156 91 -221 37 -56 149 -163 171 -163 6 0 12 -4 12 -9 0 -5 8 -11 18 -14
9 -3 44 -17 77 -31 33 -13 80 -28 105 -32 81 -13 1967 -11 2040 2 232 43 415
215 466 439 9 39 18 75 20 82 1 7 22 22 46 34 24 12 93 54 153 94 361 235 627
540 774 887 101 236 104 372 13 508 -45 67 -119 124 -191 148 -30 10 -55 25
-56 33 -1 7 -5 42 -9 76 -12 114 -53 168 -143 192 -37 10 -44 16 -54 51 -23
77 -85 130 -178 154 -39 10 -46 15 -53 45 -5 18 -30 54 -57 81 -38 38 -59 50
-100 59 -29 6 -58 11 -66 11 -7 0 -19 16 -25 36 -25 75 -128 144 -208 139 -29
-2 -36 3 -52 34 -39 77 -111 123 -197 126 -49 1 -54 4 -79 41 -49 72 -116 107
-200 103 -48 -2 -57 0 -71 22 -57 81 -160 123 -245 98 -23 -6 -33 -2 -70 36
-63 63 -156 83 -235 50 -34 -14 -38 -14 -57 4 -59 53 -145 69 -220 40z m143
-184 c39 -37 55 -45 85 -45 21 0 50 8 64 18 62 43 99 34 139 -33 40 -65 68
-72 171 -44 57 16 84 1 111 -61 31 -72 84 -91 168 -59 45 17 79 -5 102 -65 19
-53 53 -86 87 -88 10 0 44 3 75 7 53 7 57 6 77 -20 12 -15 24 -42 28 -61 4
-20 19 -44 37 -60 28 -24 35 -25 98 -19 60 6 69 5 88 -14 11 -11 24 -40 28
-63 4 -27 17 -53 34 -70 25 -25 34 -28 97 -28 80 0 96 -11 107 -75 16 -88 46
-114 131 -115 76 0 92 -16 103 -96 11 -78 40 -104 117 -104 61 0 61 0 68 -77
l5 -53 -132 1 c-101 1 -121 3 -85 9 63 11 110 39 106 64 -8 54 -163 83 -271
52 -113 -33 -90 -96 43 -119 14 -3 -74 -4 -195 -3 l-219 1 -8 40 c-9 41 -42
85 -64 85 -22 0 -54 -43 -66 -87 l-10 -43 -98 0 -98 0 -7 28 c-14 56 -91 138
-162 172 -49 23 -74 25 -91 8 -34 -34 14 -121 102 -185 l30 -23 -180 0 -179 0
2 71 c1 84 -19 151 -54 179 -31 24 -48 14 -70 -39 -16 -37 -16 -164 -1 -193 8
-17 1 -18 -77 -18 -82 0 -85 1 -85 23 0 53 -95 160 -166 187 -58 23 -84 21
-94 -6 -17 -43 44 -130 130 -188 24 -16 22 -16 -57 -16 -76 0 -81 1 -87 23
-11 47 -122 71 -242 54 -54 -8 -104 -38 -104 -63 0 -12 -55 -14 -360 -14 -344
0 -360 1 -360 19 0 10 -12 36 -26 57 -67 101 -204 171 -236 121 -19 -30 28
-113 97 -167 l38 -30 -420 0 -419 0 3 53 c6 77 6 78 61 73 83 -7 132 41 132
130 0 44 32 67 96 70 32 1 62 3 66 3 10 1 58 50 58 59 3 55 15 90 36 109 21
20 33 22 86 19 56 -4 62 -6 73 -33 29 -68 158 -165 215 -160 34 2 45 37 25 80
-24 51 -98 122 -150 144 -48 19 -51 27 -35 85 16 55 38 66 118 61 63 -4 68 -3
94 24 14 15 31 46 37 69 16 62 40 78 98 69 99 -15 134 1 163 75 10 25 28 53
42 63 22 17 28 17 82 3 80 -21 113 -6 151 70 32 64 58 75 119 52 76 -28 121
-15 158 47 41 67 78 76 140 33 14 -10 44 -18 65 -18 33 0 47 7 85 45 26 25 56
45 68 45 11 0 43 -20 69 -45z m2191 -1397 c88 -38 143 -121 142 -213 0 -52
-12 -96 -58 -215 l-26 -66 -1711 1 c-942 0 -1727 -3 -1745 -8 -61 -15 -74
-109 -21 -138 13 -7 564 -10 1705 -10 l1684 1 -14 -28 c-22 -43 -148 -204
-213 -272 l-59 -62 -1448 -2 -1448 -1 -19 -24 c-24 -30 -24 -72 0 -102 l19
-24 1351 0 c743 0 1351 -3 1351 -7 0 -9 -203 -143 -282 -187 l-57 -31 -1081 0
-1081 0 -24 -25 c-24 -24 -31 -57 -19 -90 16 -41 11 -41 1097 -41 l1038 1 -5
-30 c-27 -137 -175 -279 -327 -314 -59 -14 -1937 -15 -2008 -1 -80 15 -159 58
-220 119 -57 58 -111 152 -114 199 l-2 27 161 0 c199 0 224 11 215 95 -1 8
-13 25 -27 38 -24 21 -32 22 -226 22 l-201 0 -81 47 c-70 40 -144 88 -233 152
-12 9 -23 18 -23 21 0 3 70 4 155 3 149 -2 157 -1 182 21 34 29 36 78 4 109
-21 21 -28 22 -279 24 l-257 1 -64 69 c-67 72 -162 192 -200 256 l-23 37 224
-1 c311 -1 310 -1 337 20 31 23 32 84 2 114 -20 21 -30 21 -331 22 -298 0
-310 1 -323 20 -27 39 -80 210 -80 260 -1 98 73 195 166 219 31 8 670 11 2253
10 1946 -1 2213 -3 2244 -16z"/>
<path d="M2187 3995 c-27 -7 -60 -24 -74 -37 -22 -22 -23 -28 -12 -47 43 -68
280 -54 319 20 31 57 -111 97 -233 64z"/>
<path d="M2712 3953 c-69 -34 -162 -155 -162 -211 0 -47 49 -54 106 -16 99 67
168 189 129 228 -20 20 -31 20 -73 -1z"/>
<path d="M3572 3718 c-65 -65 168 -279 244 -223 28 20 4 81 -55 142 -72 74
-159 111 -189 81z"/>
<path d="M2025 3688 c-45 -41 -55 -176 -18 -255 15 -31 23 -38 48 -38 39 0 66
47 72 128 6 72 -8 134 -37 165 -26 27 -33 27 -65 0z"/>
<path d="M3216 3627 c-56 -41 69 -194 186 -229 33 -10 41 -9 55 5 64 64 -167
278 -241 224z"/>
<path d="M1435 3605 c-99 -23 -121 -61 -56 -99 72 -42 273 -25 305 26 34 55
-124 102 -249 73z"/>
<path d="M2846 3571 c-51 -56 -46 -231 9 -295 31 -36 58 -28 79 25 32 79 10
241 -37 274 -27 19 -30 19 -51 -4z"/>
<path d="M2340 3519 c-35 -64 132 -226 223 -217 112 11 -67 238 -187 238 -15
0 -30 -8 -36 -21z"/>
<path d="M3923 3380 c-45 -18 -18 -90 61 -164 86 -80 188 -101 181 -36 -1 8
-3 22 -3 31 -3 25 -89 116 -136 143 -53 31 -76 37 -103 26z"/>
<path d="M3565 3353 c-38 -9 -83 -35 -89 -50 -28 -72 252 -108 323 -42 29 27
27 44 -10 70 -25 18 -47 22 -118 24 -47 1 -95 0 -106 -2z"/>
<path d="M1738 3332 c-47 -10 -25 -83 45 -154 117 -116 242 -116 180 0 -48 87
-165 168 -225 154z"/>
<path d="M981 3222 c-111 -74 -175 -182 -124 -210 57 -32 222 91 245 184 14
57 -53 71 -121 26z"/>
</g>
</svg>
