<?xml version="1.0" standalone="no"?>
<!DOCTYPE svg PUBLIC "-//W3C//DTD SVG 20010904//EN"
 "http://www.w3.org/TR/2001/REC-SVG-20010904/DTD/svg10.dtd">
<svg version="1.0" xmlns="http://www.w3.org/2000/svg"
 width="512.000000pt" height="512.000000pt" viewBox="0 0 512.000000 512.000000"
 preserveAspectRatio="xMidYMid meet">
<metadata>
Created by potrace 1.11, written by Peter Selinger 2001-2013
</metadata>
<g transform="translate(0.000000,512.000000) scale(0.100000,-0.100000)"
fill="#000000" stroke="none">
<path d="M865 5109 c-33 -5 -91 -18 -130 -30 -316 -95 -562 -327 -675 -638
-62 -170 -60 -97 -60 -1872 0 -1106 3 -1642 11 -1695 60 -430 404 -784 836
-859 73 -13 315 -15 1704 -15 1106 0 1642 3 1695 11 430 60 784 404 859 836
13 73 15 315 15 1704 0 1106 -3 1642 -11 1695 -60 430 -404 784 -836 859 -74
13 -308 15 -1717 14 -897 -1 -1658 -5 -1691 -10z m1746 -1189 c20 -6 44 -18
53 -29 15 -17 20 -17 62 -3 57 19 114 4 161 -41 29 -27 38 -30 87 -28 62 3
101 -14 138 -57 20 -24 34 -30 82 -34 63 -5 99 -26 131 -76 18 -27 26 -31 66
-32 55 0 103 -29 138 -83 18 -28 31 -37 52 -37 60 0 121 -40 144 -94 10 -24
23 -32 66 -43 61 -16 103 -51 121 -100 8 -23 20 -35 38 -39 75 -16 118 -53
140 -119 8 -23 18 -35 30 -35 63 0 110 -61 119 -152 l6 -60 52 -20 c63 -23
128 -84 156 -146 57 -125 1 -328 -155 -565 -115 -173 -362 -395 -565 -507 -38
-21 -43 -29 -53 -76 -35 -169 -181 -312 -350 -344 -71 -14 -1469 -14 -1540 0
-169 32 -315 175 -350 344 -10 47 -15 55 -53 76 -203 112 -450 334 -565 507
-103 156 -170 317 -179 428 -10 120 67 241 180 283 l52 20 6 58 c3 33 12 71
19 87 15 32 67 67 99 67 15 0 25 11 37 40 21 52 74 98 124 106 33 5 41 11 50
40 19 55 103 114 165 114 6 0 17 16 24 35 16 45 76 86 136 93 25 2 45 9 45 15
0 21 54 80 86 93 18 8 50 14 71 14 31 1 41 6 58 32 32 50 68 71 131 76 48 4
62 10 82 34 13 16 38 36 54 44 29 15 108 21 126 10 5 -3 24 10 42 29 44 45
110 62 168 42 38 -13 43 -13 58 4 31 34 95 46 155 29z"/>
<path d="M2512 3781 c-38 -42 -73 -48 -117 -21 -46 28 -75 21 -106 -27 -27
-42 -69 -54 -119 -33 -40 17 -65 5 -86 -38 -27 -57 -40 -63 -116 -56 l-67 6
-23 -49 c-28 -58 -60 -77 -108 -63 -44 13 -74 -6 -91 -57 -17 -51 -34 -62
-100 -63 -64 0 -77 -10 -86 -64 -4 -27 -2 -36 9 -36 23 0 95 -58 117 -94 25
-39 27 -74 6 -82 -35 -14 -129 49 -166 110 -14 23 -26 30 -58 33 -57 6 -80
-10 -88 -59 -9 -59 -41 -88 -97 -88 -54 0 -76 -19 -76 -66 0 -54 -43 -86 -110
-81 -23 2 -25 -2 -28 -45 l-3 -48 309 0 309 0 -43 43 c-45 45 -64 91 -46 109
33 33 158 -48 184 -117 l12 -35 268 0 c235 0 268 2 268 16 0 23 62 44 130 44
68 0 130 -21 130 -44 0 -13 13 -16 62 -16 l63 0 -37 25 c-44 30 -81 86 -76
117 2 19 9 23 37 21 49 -2 111 -51 141 -111 l25 -51 55 0 55 -1 0 85 c0 63 4
88 16 100 36 37 71 -13 77 -112 l5 -73 131 0 131 0 -32 25 c-38 31 -73 84 -73
114 0 17 6 21 30 21 17 0 43 -6 59 -14 37 -20 99 -89 107 -121 6 -24 9 -25 80
-25 62 0 76 3 80 18 17 52 27 71 41 77 23 8 52 -22 59 -61 l6 -34 162 1 c88 1
152 3 141 6 -39 8 -74 25 -79 38 -14 37 93 70 174 55 25 -5 48 -9 52 -10 15
-1 37 -31 32 -44 -5 -14 -39 -30 -79 -39 -11 -3 21 -5 72 -6 l92 -1 -5 38 c-9
60 -11 62 -57 62 -52 0 -72 18 -82 75 -11 59 -29 75 -86 75 -39 0 -51 4 -68
26 -12 15 -21 39 -21 54 0 40 -28 60 -87 60 -58 0 -78 16 -95 76 -13 49 -21
54 -89 54 -64 0 -84 15 -100 74 -13 46 -38 60 -86 47 -48 -14 -83 3 -105 49
-29 59 -34 62 -98 55 -71 -8 -91 1 -114 54 -22 48 -36 55 -85 40 -60 -18 -93
-9 -120 34 -31 48 -60 55 -106 27 -44 -27 -87 -20 -116 21 -27 38 -62 38 -97
0z m-75 -156 c34 -23 28 -44 -19 -65 -72 -33 -208 -17 -208 23 0 55 161 85
227 42z m303 -38 c-1 -31 -41 -97 -80 -130 -71 -60 -126 -45 -96 26 31 74 121
146 159 126 9 -5 17 -15 17 -22z m665 -176 c81 -46 133 -141 88 -158 -26 -10
-120 45 -153 90 -41 56 -39 93 5 96 6 0 33 -12 60 -28z m-1190 -15 c36 -54 25
-183 -17 -210 -43 -27 -81 74 -64 168 12 64 53 85 81 42z m932 -57 c68 -43
117 -138 77 -153 -57 -22 -201 114 -180 170 8 21 54 13 103 -17z m-1278 -7
c19 -9 36 -22 39 -29 11 -38 -137 -67 -213 -41 -54 18 -61 52 -13 73 47 20
145 19 187 -3z m963 -42 c25 -49 25 -160 0 -191 -42 -51 -86 22 -80 132 5 101
45 130 80 59z m-347 -19 c81 -46 133 -141 88 -158 -26 -10 -120 45 -153 90
-41 56 -39 93 5 96 6 0 33 -12 60 -28z m1149 -101 c60 -22 149 -131 131 -160
-24 -39 -144 27 -182 99 -32 61 -12 85 51 61z m-149 -34 c33 -21 29 -36 -16
-58 -42 -22 -136 -24 -185 -3 -47 20 -45 54 6 73 47 16 162 10 195 -12z
m-1457 -23 c61 -42 106 -108 95 -140 -8 -22 -57 -14 -105 16 -51 32 -102 108
-92 135 9 25 56 19 102 -11z m-562 -48 c15 -39 -58 -130 -128 -159 -63 -27
-86 1 -53 63 36 71 165 139 181 96z"/>
<path d="M854 2726 c-17 -8 -44 -31 -60 -52 -41 -53 -41 -139 -1 -241 l29 -73
232 0 c171 0 236 -3 248 -12 27 -21 30 -53 9 -79 -19 -24 -23 -24 -220 -29
l-201 -5 34 -50 c18 -27 66 -87 105 -132 l72 -83 194 0 c210 0 225 -4 225 -55
0 -47 -21 -55 -153 -55 l-122 -1 32 -27 c18 -16 75 -54 128 -85 l95 -57 153 0
c136 0 156 -2 170 -18 24 -26 21 -68 -5 -86 -17 -12 -50 -16 -145 -16 l-122 0
14 -40 c35 -99 129 -186 225 -210 31 -7 276 -10 795 -8 l750 3 50 25 c69 33
139 108 163 172 l20 53 -788 5 c-647 4 -790 7 -803 19 -22 18 -21 64 1 84 17
16 89 17 828 17 l810 0 82 48 c45 26 103 63 129 82 l48 35 -1014 3 c-729 1
-1018 5 -1028 13 -20 18 -17 76 6 89 13 7 374 10 1099 10 l1080 0 59 68 c33
37 81 96 108 132 l47 65 -1267 5 -1267 5 -19 24 c-21 26 -18 58 9 79 12 9 290
12 1313 12 l1297 0 28 68 c21 51 28 84 28 139 1 80 -13 109 -74 151 l-33 22
-1681 0 c-1394 -1 -1686 -3 -1712 -14z"/>
</g>
</svg>
